<?xml version="1.0" encoding="utf-8"?>
<!-- Generator: Adobe Illustrator 26.3.1, SVG Export Plug-In . SVG Version: 6.00 Build 0)  -->
<svg version="1.1" id="Layer_1" xmlns="http://www.w3.org/2000/svg" xmlns:xlink="http://www.w3.org/1999/xlink" x="0px" y="0px"
	 viewBox="0 0 740 155.8" style="enable-background:new 0 0 740 155.8;" xml:space="preserve">
<style type="text/css">
	.st0{fill:#FFFFFF;}
</style>
<g>
	<g>
		<g>
			<path class="st0" d="M480.7,85.4c0-14.8,0.2-32.1,0.5-41.5H481c-2,14.4-7.4,49.8-11.4,74.5h-10.8c-3-21.8-8.5-59.3-10.5-74.6H448
				c0.3,9.8,0.7,28.9,0.7,43.4v31.2h-10.3V34.1h16.8c3.8,22.9,8.1,49.8,9.3,61.2h0.1c1.4-11.3,6.7-39.6,10.6-61.2h16.3v84.3h-10.8
				V85.4z"/>
			<path class="st0" d="M535.6,105.9c0,4.2,0,10.2,0.3,12.4h-10.4c-0.3-1.4-0.7-4-0.8-5c-2.2,4.3-5.9,6-10.7,6
				c-9.6,0-13.4-8.7-13.4-18.6v-1.1c0-15.4,10.1-20.1,21.7-20.1c0.6,0,1.2,0,2,0v-9.1c0-5.4-0.8-8.6-5.2-8.6c-4.3,0-5.4,3.3-5.4,7.8
				v1.3h-11.1v-1.2c0-9.3,3.6-17.3,16.9-17.3c12,0,16,7,16,17.1V105.9z M524.5,88.2c-0.7,0-2,0-2.6,0c-6.5,0-10.6,2.6-10.6,11.2v1
				c0,5.1,1.7,8.9,6.2,8.9c5,0,7-3.7,7-12.9V88.2z"/>
			<path class="st0" d="M547,75.5c0-10.6,0.1-15.8-0.1-22h10.7c0.1,1.4,0.3,6.5,0.3,10.4c2.5-8.4,8.2-11.2,14-11.3v13.9
				c-7.7,0-13.7,3.1-13.7,15.7v36.2H547V75.5z"/>
			<path class="st0" d="M589.5,82.4h0.2c3-7.2,9.2-20.9,12.7-29h11.9l-12.1,23.9l13.4,41h-12.3l-8.9-30l-4.9,9.6v20.4h-11.2v-88
				h11.2V82.4z"/>
			<path class="st0" d="M628.8,88.7v10c0,5.6,1.2,11.1,6.7,11.1c5.6,0,6.4-4.8,6.4-10.1v-0.4h11v0.4c0,7.1-1.6,19.7-17.3,19.7
				c-15.3,0-18-9.7-18-22.8V74.1c0-9.3,3.1-21.6,18-21.6c13.3,0,17.4,9.3,17.4,21.6c0,3.7,0,11,0,14.7H628.8z M642.3,79.7v-7.3
				c0-6-1.2-10.4-6.6-10.4c-5,0-6.8,3.8-6.8,10.4v7.2H642.3z"/>
			<path class="st0" d="M656.3,53.5h7.1V37.8h11.3v15.7h8.6v10h-8.6V104c0,3.2,0.5,5.9,4.5,5.9c1.2,0,3-0.1,3.7-0.4v8.6
				c-2.1,0.9-5.2,1.2-7.5,1.2c-7.3,0-12-2.6-12-13.3V63.4h-7.1V53.5z"/>
			<path class="st0" d="M697.4,98.5v2.9c0,5,1.7,8.4,6,8.4c4.1,0,5.8-2.5,5.8-7.5c0-5.1-1.5-8-9.1-13c-8.8-5.7-13-10.4-13-19.5
				c0-10.4,5.4-17.2,16.4-17.2c11.9,0,16.3,7,16.3,18v2.8h-11v-3.8c0-4.9-1.6-7.3-5.3-7.3c-3.7,0-5.1,2.6-5.1,6.7
				c0,4.2,1.4,6.1,7.5,10.1c10.6,6.8,14.8,11.4,14.8,22c0,12.1-5.8,18.5-17.6,18.5c-13.8,0-17.1-8.9-17.1-18v-2.9H697.4z"/>
		</g>
	</g>
</g>
<g>
	<g>
		<g>
			<path class="st0" d="M22,91.9V97c0,7,2.2,10.8,7.6,10.8c5.5,0,7.2-4.6,7.2-11.7c0-9.4-2-12.6-11-19.7c-9-7.1-13.8-11.6-13.8-24
				c0-10.9,3.3-21.7,17.7-21.7c14.3,0,17.1,10,17.1,19.8v4.3H35.6v-4c0-6.3-1.1-10.3-6.1-10.3c-4.9,0-6.2,4.3-6.2,10.3
				c0,6.7,1.3,9.7,8.9,15.3c12.2,9.1,16,14.3,16,28.4c0,11.9-3.9,23-18.9,23c-14.8,0-18.6-9.5-18.6-20.6v-4.9H22z"/>
			<path class="st0" d="M65.8,86.6v10c0,5.6,1.2,11.1,6.7,11.1c5.6,0,6.4-4.8,6.4-10.1v-0.4h11v0.4c0,7.1-1.6,19.7-17.3,19.7
				c-15.3,0-18-9.7-18-22.8V72c0-9.3,3.1-21.6,18-21.6c13.3,0,17.4,9.3,17.4,21.6c0,3.7,0,11,0,14.7H65.8z M79.3,77.6v-7.3
				c0-6-1.2-10.4-6.6-10.4c-5,0-6.8,3.8-6.8,10.4v7.2H79.3z"/>
			<path class="st0" d="M131.7,103.9c0,4.2,0,10.2,0.3,12.4h-10.4c-0.3-1.4-0.7-4-0.8-5c-2.2,4.3-5.9,6-10.7,6
				c-9.6,0-13.4-8.7-13.4-18.6v-1.1c0-15.4,10.1-20.1,21.7-20.1c0.6,0,1.2,0,2,0v-9.1c0-5.4-0.8-8.6-5.2-8.6c-4.3,0-5.4,3.3-5.4,7.8
				v1.3H98.7v-1.2c0-9.3,3.6-17.3,16.9-17.3c12,0,16,7,16,17.1V103.9z M120.6,86.2c-0.7,0-2,0-2.6,0c-6.5,0-10.6,2.6-10.6,11.2v1
				c0,5.1,1.7,8.9,6.2,8.9c5,0,7-3.7,7-12.9V86.2z"/>
			<path class="st0" d="M175.4,95.2v0.9c0,11.5-2.9,21.2-17.3,21.2c-14,0-16.9-9.5-16.9-22.8V71c0-10.8,3.7-20.6,17.5-20.6
				c14.8,0,16.7,10.8,16.7,19V72h-11.2v-2.5c0-5.4-0.9-9.4-5.7-9.4c-4.3,0-5.9,3.3-5.9,9.7v28c0,5.1,0.9,10,5.8,10
				c4.6,0,5.8-3.4,5.8-9.9v-2.7H175.4z"/>
			<path class="st0" d="M183.6,73.4c0-10.6,0.1-15.8-0.1-22h10.7c0.1,1.4,0.3,6.5,0.3,10.4c2.5-8.4,8.2-11.2,14-11.3v13.9
				c-7.7,0-13.7,3.1-13.7,15.7v36.2h-11.3V73.4z"/>
			<path class="st0" d="M224.1,86.6v10c0,5.6,1.2,11.1,6.7,11.1c5.6,0,6.4-4.8,6.4-10.1v-0.4h11v0.4c0,7.1-1.6,19.7-17.3,19.7
				c-15.3,0-18-9.7-18-22.8V72c0-9.3,3.1-21.6,18-21.6c13.3,0,17.4,9.3,17.4,21.6c0,3.7,0,11,0,14.7H224.1z M237.7,77.6v-7.3
				c0-6-1.2-10.4-6.6-10.4c-5,0-6.8,3.8-6.8,10.4v7.2H237.7z"/>
			<path class="st0" d="M265.4,96.4v2.9c0,5,1.7,8.4,6,8.4c4.1,0,5.8-2.5,5.8-7.5c0-5.1-1.5-8-9.1-13c-8.8-5.7-13-10.4-13-19.5
				c0-10.4,5.4-17.2,16.4-17.2c11.9,0,16.3,7,16.3,18v2.8h-11v-3.8c0-4.9-1.6-7.3-5.3-7.3c-3.7,0-5.1,2.6-5.1,6.7
				c0,4.2,1.4,6.1,7.5,10.1c10.6,6.8,14.8,11.4,14.8,22c0,12.1-5.8,18.5-17.6,18.5c-13.8,0-17.1-8.9-17.1-18v-2.9H265.4z"/>
			<path class="st0" d="M291.1,51.4h7.1V35.7h11.3v15.7h8.6v10h-8.6v40.5c0,3.2,0.5,5.9,4.5,5.9c1.2,0,3-0.1,3.7-0.4v8.6
				c-2.1,0.9-5.2,1.2-7.5,1.2c-7.4,0-12-2.6-12-13.3V61.4h-7.1V51.4z"/>
		</g>
	</g>
</g>
<path class="st0" d="M425.2,38.8c-7.1,6.5-14.1,12.9-21.2,19.4c-1.8-2-3.6-4-5.4-5.9c-2.6-2.9-5.2-5.9-7.9-8.8
	c-5.7-5.9-14.7-6.1-20.5-0.5c-5.7,5.5-5.8,14.5-0.3,20.4c8.2,8.9,16.4,17.7,24.4,26.8c6.5,7.4,8,16,3.8,25c-4.1,8.7-11.4,13.1-21,13
	c-6.3,0-11.6-2.6-15.9-7.2c-2.6-2.8-5.1-5.6-7.8-8.5c-3,2.7-5.9,5.4-8.9,8.1c6.9,8,13.5,16.2,24.3,19.1c21.4,5.8,42.5-9,44.1-31
	c0.8-11-3.1-20.1-10.6-28c-3.8-4-7.5-8.2-11.3-12.4c2-1.9,4-3.6,6.3-5.7c5.8,6.9,12.3,13.2,17.2,20.5c13.4,20.2,6.7,47.3-14,60.1
	c-13.1,8.1-26.6,8.5-40.3,2.3c-3.6-1.6-7.1-4.1-9.9-6.9c-6-5.8-11.5-12.1-17.4-18.4c7.2-6.6,14.2-12.9,21.3-19.5
	c4.4,4.8,8.6,9.6,13,14.4c7.2,7.8,19.7,5.9,23.8-3.6c2.5-5.7,1.7-11.1-2.5-15.7c-8.1-9-16.3-17.8-24.4-26.8
	c-6.6-7.4-8.3-15.8-4.2-24.9c6.7-15.1,26.4-18,37.5-5.8c2.4,2.7,4.9,5.4,7.4,8.2c3-2.8,6-5.4,9-8.2c-5.3-5.4-9.5-11.8-16.2-15.5
	c-11.9-6.6-24-6.8-35.6,0.3c-11.6,7.1-17.1,17.9-16.6,31.6c0.3,9.4,4.4,17,10.8,23.7c3.8,4,7.4,8.1,11.2,12.3c-2,1.8-4,3.6-6.1,5.5
	c-4.2-4.7-8.3-9.2-12.5-13.7c-5.7-6.1-9.4-13.2-11-21.5c-4.5-23.4,11-46.4,34.4-50.5c15.2-2.7,28.4,1.7,39.2,12.9
	C415.9,28.3,420.4,33.5,425.2,38.8z"/>
</svg>
